<?xml version="1.0" encoding="UTF-8" standalone="no"?>
<svg
   viewBox="0 0 32 32"
   width="32"
   height="32"
   version="1.1"
   id="svg2"
   sodipodi:docname="favicon-blue.svg"
   inkscape:version="1.3.2 (091e20e, 2023-11-25)"
   inkscape:export-filename="icon-512x512.png"
   inkscape:export-xdpi="1536"
   inkscape:export-ydpi="1536"
   xmlns:inkscape="http://www.inkscape.org/namespaces/inkscape"
   xmlns:sodipodi="http://sodipodi.sourceforge.net/DTD/sodipodi-0.dtd"
   xmlns="http://www.w3.org/2000/svg"
   xmlns:svg="http://www.w3.org/2000/svg">
  <sodipodi:namedview
     id="namedview2"
     pagecolor="#ffffff"
     bordercolor="#000000"
     borderopacity="0.25"
     inkscape:showpageshadow="2"
     inkscape:pageopacity="0.0"
     inkscape:pagecheckerboard="0"
     inkscape:deskcolor="#d1d1d1"
     inkscape:zoom="15.366813"
     inkscape:cx="21.377237"
     inkscape:cy="17.114804"
     inkscape:window-width="1496"
     inkscape:window-height="909"
     inkscape:window-x="0"
     inkscape:window-y="143"
     inkscape:window-maximized="0"
     inkscape:current-layer="svg2"
     inkscape:export-bgcolor="#ffffff00" />
  <defs
     id="defs2">
    <linearGradient
       id="swatch11"
       inkscape:swatch="solid">
      <stop
         style="stop-color:#0a1128;stop-opacity:1;"
         offset="0"
         id="stop11" />
    </linearGradient>
    <linearGradient
       id="swatch10"
       inkscape:swatch="solid">
      <stop
         style="stop-color:#0a1128;stop-opacity:1;"
         offset="0"
         id="stop10" />
    </linearGradient>
    <linearGradient
       id="swatch9"
       inkscape:swatch="solid">
      <stop
         style="stop-color:#0a1128;stop-opacity:1;"
         offset="0"
         id="stop9" />
    </linearGradient>
    <filter
       id="glow"
       x="-0.47344593"
       y="-0.41405349"
       width="1.9468919"
       height="1.828107">
      <feGaussianBlur
         in="SourceGraphic"
         stdDeviation="2.5877933"
         result="blur"
         id="feGaussianBlur1" />
      <feColorMatrix
         in="blur"
         type="matrix"
         values="0 0 0 0 0                                                        0 1 0 0 0                                                        0 0 0.255 0 0                                                        0 0 0 1 0"
         result="coloredBlur"
         id="feColorMatrix1" />
      <feMerge
         id="feMerge2">
        <feMergeNode
           in="coloredBlur"
           id="feMergeNode1" />
        <feMergeNode
           in="SourceGraphic"
           id="feMergeNode2" />
      </feMerge>
    </filter>
  </defs>
  <path
     style="fill:#1c2449;fill-opacity:1"
     d="M 4.3667014,8.259905 4.6297557,7.9968507 4.860433,7.8114101 5.2810474,7.5510298 8.9196957,5.3945465 14.507858,2.0830427 l 0.240351,-0.126852 0.153558,-0.073441 0.240351,-0.086793 0.333821,-0.086793 0.340497,-0.040059 h 0.340498 l 0.307115,0.033382 0.400585,0.086793 0.307115,0.1201755 0.233675,0.1134991 0.35385,0.2002926 1.221785,0.7277297 6.128953,3.6386483 1.936161,1.1616969 0.206969,0.1468812 0.240351,0.206969 0.140205,0.1335283 0.213645,0.253704 0.206969,0.3071152 0.173587,0.3538502 0.08679,0.2203219 0.07344,0.287086 0.02671,0.1535576 -0.120176,-0.1869397 -0.133528,-0.1402048 -0.146881,-0.1134991 -0.17441,-0.080723 -0.113282,-0.035156 -0.132812,-0.027344 -0.132813,-0.00781 -0.191406,0.015625 -0.21875,0.050781 -0.253906,0.097656 L 26.558594,9.515625 26.113281,9.7851563 25.5,10.164063 23.691406,11.28125 20.714844,13.125 l -3.070313,1.890625 -0.503906,0.324219 -0.332031,0.242187 -0.347657,0.300782 -0.183593,0.203124 -0.210938,0.285157 -0.125,0.226562 -0.109375,0.242188 -0.03906,0.140625 -0.0625,0.257812 -0.01953,0.117188 -0.01563,0.15625 -0.01172,0.589843 -0.0039,3.152344 v 2.460938 3.855468 l 0.0039,1.226563 v 0.226562 l 0.01563,0.15625 0.03516,0.183594 0.08203,0.230469 0.113282,0.222656 0.07812,0.121094 0.140625,0.140625 0.144532,0.109375 0.203125,0.09766 -0.09375,0.01953 -0.28125,0.02734 -0.171875,0.0039 -0.21875,-0.01172 -0.3125,-0.04687 -0.34375,-0.09375 -0.304688,-0.125 L 14.46875,29.894531 13.40625,29.257812 10.734375,27.675781 6.7070312,25.292969 4.9453125,24.246094 4.703125,24.0625 4.4296875,23.816406 4.2421875,23.609375 4.078125,23.382812 3.8984375,23.085937 3.8085938,22.894531 3.7109375,22.652344 3.6367188,22.410156 3.5820313,22.148437 3.546875,21.804687 3.5429688,19.828125 v -1.84375 l 0.00391,-2.671875 -0.00391,-4.402344 v -0.65625 L 3.5585938,10.089844 3.5742188,9.9179688 3.6484375,9.5507813 3.7539063,9.234375 3.8632813,8.9726563 3.9960938,8.7382813 4.1328125,8.5390625 4.25,8.3828125 Z"
     id="path3" />
  <rect
     style="opacity:1;mix-blend-mode:normal;fill:#0a1128;fill-rule:nonzero;fill-opacity:1"
     id="rect4"
     width="7.012867"
     height="8.5414047"
     x="17.825819"
     y="17.593904" />
  <!-- No background - custom shape only! -->
  <!-- VscTerminalBash icon with bright green glow -->
  <g
     transform="translate(0, 0) scale(2)"
     filter="url(#glow)"
     id="g2"
     style="opacity:1;filter:url(#glow)">
    <path
       d="M 13.655,3.56 8.918,0.75 a 1.785,1.785 0 0 0 -1.82,0 L 2.363,3.56 A 1.889,1.889 0 0 0 1.442,5.188 v 5.624 a 1.889,1.889 0 0 0 0.913,1.627 l 4.736,2.812 a 1.785,1.785 0 0 0 1.82,0 l 4.736,-2.812 A 1.888,1.888 0 0 0 14.56,10.812 V 5.188 A 1.889,1.889 0 0 0 13.656,3.561 Z m -3.669,8.781 v 0.404 a 0.149,0.149 0 0 1 -0.07,0.124 l -0.239,0.137 c -0.038,0.02 -0.07,0 -0.07,-0.053 V 12.557 A 0.78,0.78 0 0 1 9.062,12.61 0.073,0.073 0 0 1 9.035,12.52 l 0.086,-0.365 a 0.153,0.153 0 0 1 0.071,-0.096 0.048,0.048 0 0 1 0.038,0 0.662,0.662 0 0 0 0.497,-0.063 0.662,0.662 0 0 0 0.37,-0.567 c 0,-0.206 -0.112,-0.292 -0.384,-0.293 -0.344,0 -0.661,-0.066 -0.67,-0.574 A 1.47,1.47 0 0 1 9.6,9.437 V 9.03 A 0.147,0.147 0 0 1 9.67,8.904 L 9.901,8.757 c 0.038,-0.02 0.07,0 0.07,0.054 V 9.22 a 0.754,0.754 0 0 1 0.453,-0.055 0.073,0.073 0 0 1 0.03,0.095 l -0.081,0.362 a 0.156,0.156 0 0 1 -0.065,0.09 0.055,0.055 0 0 1 -0.035,0 0.6,0.6 0 0 0 -0.436,0.072 0.549,0.549 0 0 0 -0.331,0.486 c 0,0.185 0.098,0.242 0.425,0.248 0.438,0 0.627,0.199 0.632,0.639 a 1.568,1.568 0 0 1 -0.576,1.185 z m 2.481,-0.68 a 0.094,0.094 0 0 1 -0.036,0.092 l -1.198,0.727 a 0.034,0.034 0 0 1 -0.04,0.003 0.035,0.035 0 0 1 -0.016,-0.037 v -0.31 a 0.086,0.086 0 0 1 0.055,-0.076 l 1.179,-0.706 a 0.035,0.035 0 0 1 0.056,0.035 v 0.273 z M 13.294,4.747 8.812,7.515 C 8.253,7.846 7.842,8.208 7.842,8.882 v 5.52 c 0,0.404 0.165,0.662 0.413,0.741 a 1.465,1.465 0 0 1 -0.248,0.025 c -0.264,0 -0.522,-0.072 -0.748,-0.207 L 2.522,12.15 A 1.558,1.558 0 0 1 1.772,10.812 V 5.188 a 1.558,1.558 0 0 1 0.75,-1.34 L 7.26,1.038 a 1.46,1.46 0 0 1 1.489,0 l 4.736,2.812 a 1.548,1.548 0 0 1 0.728,1.083 C 14.059,4.599 13.705,4.506 13.293,4.748 h 0.002 z"
       fill="#00ff41"
       id="path2"
       style="opacity:1;mix-blend-mode:normal" />
  </g>
</svg>
