<?xml version="1.0" encoding="UTF-8"?>
<svg inkscape:version="1.3.2 (091e20e, 2023-11-25)" sodipodi:docname="favicon-blue.svg" version="1.1" viewBox="0 0 32 32" xmlns="http://www.w3.org/2000/svg" xmlns:inkscape="http://www.inkscape.org/namespaces/inkscape" xmlns:sodipodi="http://sodipodi.sourceforge.net/DTD/sodipodi-0.dtd">
 <sodipodi:namedview bordercolor="#000000" borderopacity="0.25" inkscape:current-layer="svg2" inkscape:cx="23.069195" inkscape:cy="19.067063" inkscape:deskcolor="#d1d1d1" inkscape:pagecheckerboard="0" inkscape:pageopacity="0.0" inkscape:showpageshadow="2" inkscape:window-height="909" inkscape:window-maximized="0" inkscape:window-width="1496" inkscape:window-x="0" inkscape:window-y="143" inkscape:zoom="15.366813" pagecolor="#ffffff"/>
 <defs>
  <filter id="glow" x="-.47345" y="-.41405" width="1.9469" height="1.8281">
   <feGaussianBlur in="SourceGraphic" result="blur" stdDeviation="2.5877933"/>
   <feColorMatrix in="blur" result="coloredBlur" values="0 0 0 0 0                                                        0 1 0 0 0                                                        0 0 0.255 0 0                                                        0 0 0 1 0"/>
   <feMerge>
    <feMergeNode in="coloredBlur"/>
    <feMergeNode in="SourceGraphic"/>
   </feMerge>
  </filter>
 </defs>
 <path d="m4.3667 8.2599 0.26305-0.26305 0.23068-0.18544 0.42061-0.26038 3.6386-2.1565 5.5882-3.3115 0.24035-0.12685 0.15356-0.073441 0.24035-0.086793 0.33382-0.086793 0.3405-0.040059h0.3405l0.30712 0.033382 0.40058 0.086793 0.30712 0.12018 0.23368 0.1135 0.35385 0.20029 1.2218 0.72773 6.129 3.6386 1.9362 1.1617 0.20697 0.14688 0.24035 0.20697 0.1402 0.13353 0.21364 0.2537 0.20697 0.30712 0.17359 0.35385 0.08679 0.22032 0.07344 0.28709 0.02671 0.15356-0.12018-0.18694-0.13353-0.1402-0.14688-0.1135-0.17441-0.080723-0.11328-0.035156-0.13281-0.027344-0.13281-0.00781-0.19141 0.015625-0.21875 0.050781-0.25391 0.097656-0.23828 0.1289-0.44531 0.26953-0.61328 0.37891-1.8086 1.1172-2.9766 1.8438-3.0703 1.8906-0.50391 0.32422-0.33203 0.24219-0.34766 0.30078-0.18359 0.20312-0.21094 0.28516-0.125 0.22656-0.10938 0.24219-0.03906 0.14062-0.0625 0.25781-0.01953 0.11719-0.01563 0.15625-0.01172 0.58984-0.0039 3.1523v6.3164l0.0039 1.2266v0.22656l0.01563 0.15625 0.03516 0.18359 0.08203 0.23047 0.11328 0.22266 0.07812 0.12109 0.14062 0.14062 0.14453 0.10938 0.20312 0.09766-0.09375 0.01953-0.28125 0.02734-0.17188 0.0039-0.21875-0.01172-0.3125-0.04687-0.34375-0.09375-0.30469-0.125-0.30078-0.16406-1.0625-0.63672-2.6719-1.582-4.0273-2.3828-1.7617-1.0469-0.24219-0.18359-0.27344-0.24609-0.1875-0.20703-0.16406-0.22656-0.17969-0.29688-0.089844-0.19141-0.097656-0.24219-0.074219-0.24219-0.054688-0.26172-0.035156-0.34375-0.0039062-1.9766v-1.8438l0.00391-2.6719-0.00391-4.4023v-0.65625l0.015625-0.16406 0.015625-0.17188 0.074219-0.36719 0.10547-0.31641 0.10938-0.26172 0.13281-0.23438 0.13672-0.19922 0.11719-0.15625z" fill="#1c2449"/>
 <rect x="17.826" y="17.594" width="7.0129" height="8.5414" fill="#0a1128" style="mix-blend-mode:normal"/>
 <!-- No background - custom shape only! -->
 <!-- VscTerminalBash icon with bright green glow -->
 <g transform="translate(0) scale(2)" filter="url(#glow)">
  <path d="m13.655 3.56-4.737-2.81a1.785 1.785 0 0 0-1.82 0l-4.735 2.81a1.889 1.889 0 0 0-0.921 1.628v5.624a1.889 1.889 0 0 0 0.913 1.627l4.736 2.812a1.785 1.785 0 0 0 1.82 0l4.736-2.812a1.888 1.888 0 0 0 0.913-1.627v-5.624a1.889 1.889 0 0 0-0.904-1.627zm-3.669 8.781v0.404a0.149 0.149 0 0 1-0.07 0.124l-0.239 0.137c-0.038 0.02-0.07 0-0.07-0.053v-0.396a0.78 0.78 0 0 1-0.545 0.053 0.073 0.073 0 0 1-0.027-0.09l0.086-0.365a0.153 0.153 0 0 1 0.071-0.096 0.048 0.048 0 0 1 0.038 0 0.662 0.662 0 0 0 0.497-0.063 0.662 0.662 0 0 0 0.37-0.567c0-0.206-0.112-0.292-0.384-0.293-0.344 0-0.661-0.066-0.67-0.574a1.47 1.47 0 0 1 0.557-1.125v-0.407a0.147 0.147 0 0 1 0.07-0.126l0.231-0.147c0.038-0.02 0.07 0 0.07 0.054v0.409a0.754 0.754 0 0 1 0.453-0.055 0.073 0.073 0 0 1 0.03 0.095l-0.081 0.362a0.156 0.156 0 0 1-0.065 0.09 0.055 0.055 0 0 1-0.035 0 0.6 0.6 0 0 0-0.436 0.072 0.549 0.549 0 0 0-0.331 0.486c0 0.185 0.098 0.242 0.425 0.248 0.438 0 0.627 0.199 0.632 0.639a1.568 1.568 0 0 1-0.576 1.185zm2.481-0.68a0.094 0.094 0 0 1-0.036 0.092l-1.198 0.727a0.034 0.034 0 0 1-0.04 3e-3 0.035 0.035 0 0 1-0.016-0.037v-0.31a0.086 0.086 0 0 1 0.055-0.076l1.179-0.706a0.035 0.035 0 0 1 0.056 0.035v0.273zm0.827-6.914-4.482 2.768c-0.559 0.331-0.97 0.693-0.97 1.367v5.52c0 0.404 0.165 0.662 0.413 0.741a1.465 1.465 0 0 1-0.248 0.025c-0.264 0-0.522-0.072-0.748-0.207l-4.737-2.811a1.558 1.558 0 0 1-0.75-1.338v-5.624a1.558 1.558 0 0 1 0.75-1.34l4.738-2.81a1.46 1.46 0 0 1 1.489 0l4.736 2.812a1.548 1.548 0 0 1 0.728 1.083c-0.154-0.334-0.508-0.427-0.92-0.185h2e-3z" fill="#00ff41" style="mix-blend-mode:normal"/>
 </g>
</svg>
